<?xml version="1.0" encoding="UTF-8" standalone="no"?>
<svg xmlns:inkscape="http://www.inkscape.org/namespaces/inkscape" xmlns:sodipodi="http://sodipodi.sourceforge.net/DTD/sodipodi-0.dtd" xmlns:xlink="http://www.w3.org/1999/xlink" height="241"
    id="svg4" version="1.1" viewBox="0 0 395.27997 241"
    width="395.28"
    xmlns="http://www.w3.org/2000/svg"
    inkscape:version="1.3.2 (091e20e, 2023-11-25, custom)" sodipodi:docname="logo_purena.svg">
    <sodipodi:namedview bordercolor="#000000" borderopacity="0.25" id="namedview4"
        pagecolor="#ffffff" inkscape:current-layer="svg4" inkscape:cx="197.72079"
        inkscape:cy="120.5" inkscape:deskcolor="#d1d1d1" inkscape:pagecheckerboard="0"
        inkscape:pageopacity="0.0" inkscape:showpageshadow="2" inkscape:window-height="1009"
        inkscape:window-maximized="1" inkscape:window-width="1920" inkscape:window-x="2152"
        inkscape:window-y="2732" inkscape:zoom="3.373444" />
    <linearGradient gradientUnits="userSpaceOnUse" id="linearGradient2" x1="0" x2="0.70700002"
        y1="841.89001" y2="841.18298">
        <stop id="stop1" offset="0" stop-color="#18a236" />
        <stop id="stop2" offset=".983" stop-color="#23381c" />
    </linearGradient>
    <use fill="#94c11c" id="use2" transform="translate(-100.4469,-300.30517)" xlink:href="#C" />
    <path
        d="M 325.8931,237.18483 H 68.483098 c -36.53,0 -66.2500001,-29.72 -66.2500001,-66.25 0,-31.91 22.6700001,-58.61 52.7400001,-64.87 C 75.333098,45.354829 132.0431,4.0148287 197.1831,4.0148287 c 65.14,0 121.84,41.3400003 142.2,102.0500013 30.09,6.25 52.77,32.96 52.77,64.87 0,36.53 -29.72,66.25 -66.26,66.25 z m -257.410002,-95.33 c -16.04,0 -29.09,13.05 -29.09,29.09 0,16.03 13.05,29.08 29.09,29.08 H 325.8931 c 16.04,0 29.09,-13.05 29.09,-29.08 0,-16.04 -13.05,-29.09 -29.09,-29.09 h -15.53 l -3.42,-14.24 c -12.23,-50.890001 -57.37,-86.430001 -109.76,-86.430001 -52.4,0 -97.530002,35.54 -109.760002,86.430001 l -3.42,14.24 z"
        fill="#ffffff" id="path2" />
    <use fill="#94c11c" id="use3" transform="translate(-100.4469,-300.30517)" xlink:href="#C" />
    <path
        d="M 325.8931,227.89483 H 68.483098 c -31.41,0 -56.96,-25.55 -56.96,-56.95 0,-29.26 22.17,-53.43 50.6,-56.61 17.51,-59.830001 72.080002,-101.020001 135.060002,-101.020001 62.98,0 117.55,41.2 135.06,101.020001 28.44,3.17 50.62,27.35 50.62,56.61 0,31.4 -25.56,56.95 -56.97,56.95 z m -257.410002,-95.33 c -21.16,0 -38.38,17.22 -38.38,38.38 0,21.16 17.22,38.37 38.38,38.37 H 325.8931 c 21.17,0 38.38,-17.21 38.38,-38.37 0,-21.16 -17.22,-38.38 -38.38,-38.38 h -8.21 l -1.71,-7.12 c -13.24,-55.080001 -62.09,-93.550001 -118.79,-93.550001 -56.71,0 -105.560002,38.47 -118.800002,93.550001 l -1.71,7.12 z"
        fill="#3c932c" id="path3" />
    <use fill="#94c11c" id="use4" transform="translate(-100.4469,-300.30517)" xlink:href="#C" />
    <path
        d="M 325.8931,221.39483 H 68.483098 c -27.82,0 -50.46,-22.63 -50.46,-50.45 0,-27.38 21.92,-49.74 49.14,-50.44 15.28,-59.390001 68.430002,-100.690001 130.010002,-100.690001 61.58,0 114.73,41.29 130.01,100.690001 27.23,0.69 49.17,23.05 49.17,50.44 0,27.81 -22.63,50.45 -50.46,50.45 z m -257.410002,-95.34 c -24.75,0 -44.88,20.14 -44.88,44.88 0,24.74 20.13,44.88 44.88,44.88 H 325.8931 c 24.75,0 44.89,-20.13 44.89,-44.88 0,-24.75 -20.13,-44.88 -44.89,-44.88 h -3.08 l -0.52,-2.14 c -13.94,-58.020001 -65.39,-98.530001 -125.12,-98.530001 -59.73,0 -111.180002,40.52 -125.120002,98.530001 l -0.51,2.14 z m -2.37,52.72 h -9.01 v 21.4 h -14.75 v -60 h 23.76 c 13.32,0 20.48,9.44 20.48,19.3 0,9.86 -7.16,19.3 -20.48,19.3 z m -0.67,-25.37 h -8.34 v 12.14 h 8.34 c 4.04,0 6.41,-2.95 6.41,-6.07 -0.01,-3.12 -2.37,-6.07 -6.41,-6.07 z m 49.290002,47.28 c -12.48,0 -22.670002,-8.43 -22.670002,-21.57 v -38.93 H 106.8131 v 38.59 c 0,5.56 3.03,8.76 7.93,8.76 4.88,0 8.09,-3.2 8.09,-8.76 v -38.59 h 14.75 v 38.93 c -0.01,13.14 -10.38,21.57 -22.85,21.57 z m 62.18,-0.51 -10.61,-22.33 h -4.97 v 22.33 h -14.75 v -60 h 23.76 c 13.31,0 20.48,9.44 20.48,19.3 0,8.17 -5.06,13.31 -9.78,15.67 l 12.98,25.03 z m -7.25,-46.77 h -8.34 v 12.14 h 8.34 c 4.04,0 6.4,-2.95 6.4,-6.07 0,-3.12 -2.35,-6.07 -6.4,-6.07 z m 29.74,46.77 v -60 h 40.78 v 13.15 h -26.03 v 10.03 h 22.25 v 13.15 h -22.25 v 10.53 h 26.04 v 13.15 h -40.79 z m 83.08,0 -19.21,-30.17 v 30.17 h -14.74 v -60 h 12.88 l 19.21,30.17 v -30.17 h 14.75 v 60 z m 56.45,0 -2.78,-8.93 h -18.45 l -2.95,8.93 h -15.42 l 21.83,-60 h 11.37 l 21.83,60 z m -11.71,-37.24 -5.4,16.01 h 10.45 z m -126.49,-96.260001 c -8.61,7.23 -14.35,16.03 -16.6,25.45 -2.54,10.690001 -0.86,22.570001 4.53,31.760001 0,0 -5.97,-14.87 0.32,-32.140001 3.77,-9.14 7.62,-14.25 18.34,-20.56 12.96,-7.65 28.8,-10.24 39.05,-12.51 -0.73,12 -3.9,21.78 -7.35,31.63 -4.09,11.720001 -7.67,18.350001 -14.9,24.400001 -7.1,5.93 -14.56,7.55 -24.85,7.9 0.44,-9.47 3.28,-18.99 8.03,-26.870001 4.65,-7.68 19.33,-19.79 19.33,-19.79 -9.97,3.96 -18.6,11.11 -24.31,20.12 -2.97,4.690001 -5.27,9.890001 -6.87,15.460001 -1.55,5.39 -2.32,10.12 -2.31,14.44 v 1.82 c 0,0.54 0.3,0.93 1.72,0.81 1.93,0.14 3.85,0.23 5.78,0.23 h 0.59 c 5.95,-0.09 11.6,-1.09 16.78,-2.99 9.73,-3.58 18.24,-10.66 24.59,-20.49 5.39,-8.310001 9.38,-18.600001 11.92,-30.580001 1.92,-9.05 3.1,-20.03 3.07,-28.53 0.01,0.02 -41.18,7.3 -56.86,20.44 z m -6.31,61.350001 z m -15.7,-28.880001 c -0.1,-0.38 -0.36,-1.26 -0.71,-1.79 l -0.02,-0.04 h -0.01 c 0,-0.01 -0.01,-0.02 -0.02,-0.02 -2,-4.57 -5.16,-8.49 -9.18,-11.38 -4.09,-2.94 -9.18,-4.93 -15.13,-5.92 -2.94,-0.49 -6.06,-0.74 -9.29,-0.74 -8.35,0 -16.64,1.66 -22.92,3.1 l -1.86,0.43 0.18,0.61 c 2.75,9.05 6.48,17.080001 11.08,23.870001 7.33,10.81 16.19,17.51 25.62,19.35 a 29.2,29.2 0 0 0 5.63,0.54 c 3.3,0 6.65,-0.53 9.94,-1.59 l 2.44,-0.85 c 0.61,-0.19 0.93,-0.47 0.75,-1.35 a 20,20 0 0 0 -1.44,-4.61 c -3.81,-8.51 -11.97,-15.59 -22.38,-19.400001 0,0 15.74,11.850001 18.79,21.930001 -4.99,1.11 -9.91,0.96 -14.29,-0.47 -4.3,-1.42 -8.42,-4.02 -12.23,-7.75 -6.4,-6.26 -9.24,-13.750001 -13.36,-24.520001 14.68,-3.25 22.04,-4.32 30.63,-1.27 4.95,1.76 9.12,4.8 12.03,8.8 2.86,3.92 4.79,8.990001 5.58,14.650001 0.38,2.71 0.52,5.29 0.41,7.67 0,0 3.14,-9.19 -0.19,-19.080001 -0.01,0 -0.02,-0.07 -0.05,-0.17 z m -4.21,24.920001 0.01,0.01 z"
        fill="#ffffff" id="path4" />
    <defs id="defs4">
        <path d="m 426.34,423.58 h -0.89 C 411.57,365.83 359.62,322.91 297.62,322.91 c -62,0 -113.95,42.92 -127.83,100.67 h -0.87 c -26.34,0 -47.67,21.34 -47.67,47.67 0,26.32 21.33,47.66 47.67,47.66 h 257.41 c 26.32,0 47.67,-21.34 47.67,-47.66 0.02,-26.33 -21.34,-47.67 -47.66,-47.67 z"
            id="C" />
    </defs>
</svg>
