<?xml version="1.0" encoding="UTF-8" standalone="no"?>
<svg
   enable-background="new 0 0 595.28 841.89"
   viewBox="0 0 539.28 539.99998"
   version="1.1"
   id="svg12"
   sodipodi:docname="400.svg"
   width="539.28003"
   height="540"
   inkscape:version="1.3.2 (091e20e, 2023-11-25, custom)"
   xmlns:inkscape="http://www.inkscape.org/namespaces/inkscape"
   xmlns:sodipodi="http://sodipodi.sourceforge.net/DTD/sodipodi-0.dtd"
   xmlns="http://www.w3.org/2000/svg"
   xmlns:svg="http://www.w3.org/2000/svg">
  <defs
     id="defs12" />
  <sodipodi:namedview
     id="namedview12"
     pagecolor="#ffffff"
     bordercolor="#000000"
     borderopacity="0.25"
     inkscape:showpageshadow="2"
     inkscape:pageopacity="0.0"
     inkscape:pagecheckerboard="0"
     inkscape:deskcolor="#d1d1d1"
     inkscape:zoom="1.3932936"
     inkscape:cx="297.49651"
     inkscape:cy="420.94501"
     inkscape:window-width="2560"
     inkscape:window-height="1369"
     inkscape:window-x="4072"
     inkscape:window-y="1632"
     inkscape:window-maximized="1"
     inkscape:current-layer="svg12" />
  <g
     stroke-miterlimit="10"
     id="g12"
     transform="translate(-27.273504,-255.50967)">
    <path
       d="M 506.95,789.73 H 88.28 c -30.19,0 -54.67,-24.48 -54.67,-54.67 V 316.4 c 0,-30.19 24.48,-54.67 54.67,-54.67 h 418.67 c 30.19,0 54.67,24.48 54.67,54.67 v 418.67 c -0.01,30.18 -24.48,54.66 -54.67,54.66 z"
       fill="#ffffff"
       opacity="0.5"
       stroke="#3c932c"
       stroke-width="7"
       id="path1" />
    <g
       fill="#3c932c"
       stroke="#ffffff"
       stroke-width="3"
       id="g11">
      <path
         d="m 261.86,594.17 c -1.61,1.28 -3.1,2.78 -4.86,3.81 -5.46,3.21 -11.24,2.78 -15.75,-1.66 -3.11,-3.07 -5.9,-6.59 -8.21,-10.3 -3.29,-5.29 -2.65,-11.04 1.74,-15.47 3.07,-3.1 6.59,-5.91 10.3,-8.2 5.39,-3.34 11.22,-2.59 15.69,1.91 2.95,2.97 5.65,6.32 7.87,9.87 3.77,6.06 2.35,12.77 -3.19,17.32 -1.16,0.95 -2.34,1.87 -3.52,2.81 -0.02,-0.03 -0.05,-0.06 -0.07,-0.09 z m -3.81,-19.76 c -0.82,-1.03 -1.63,-2.06 -2.46,-3.09 -2.32,-2.86 -4.32,-3.12 -7.17,-0.89 -2.29,1.79 -4.58,3.59 -6.83,5.44 -2.3,1.89 -2.58,4.04 -0.8,6.36 1.88,2.46 3.82,4.88 5.79,7.28 1.89,2.3 4.04,2.58 6.36,0.81 2.46,-1.88 4.88,-3.82 7.28,-5.79 2.38,-1.96 2.56,-4.08 0.64,-6.59 -0.91,-1.19 -1.87,-2.35 -2.81,-3.53 z"
         id="path2" />
      <path
         d="m 368.44,682.48 c -1.61,1.28 -3.1,2.78 -4.86,3.81 -5.46,3.21 -11.24,2.78 -15.75,-1.66 -3.11,-3.07 -5.9,-6.59 -8.21,-10.3 -3.29,-5.29 -2.65,-11.04 1.74,-15.47 3.07,-3.1 6.59,-5.91 10.3,-8.2 5.39,-3.34 11.22,-2.59 15.69,1.91 2.95,2.97 5.65,6.32 7.87,9.87 3.77,6.06 2.35,12.77 -3.19,17.32 -1.16,0.95 -2.34,1.87 -3.52,2.81 -0.02,-0.03 -0.05,-0.06 -0.07,-0.09 z m -3.81,-19.76 c -0.82,-1.03 -1.63,-2.06 -2.46,-3.09 -2.32,-2.86 -4.32,-3.12 -7.17,-0.89 -2.29,1.79 -4.58,3.59 -6.83,5.44 -2.3,1.89 -2.58,4.04 -0.8,6.36 1.88,2.46 3.82,4.88 5.79,7.28 1.89,2.3 4.04,2.58 6.36,0.81 2.46,-1.88 4.88,-3.82 7.28,-5.79 2.38,-1.96 2.56,-4.08 0.64,-6.59 -0.91,-1.19 -1.87,-2.35 -2.81,-3.53 z"
         id="path3" />
      <path
         d="m 376.6,583.41 c -0.3,0.24 -0.58,0.52 -0.91,0.71 -1.02,0.6 -2.11,0.52 -2.95,-0.31 -0.58,-0.58 -1.11,-1.23 -1.54,-1.93 -0.62,-0.99 -0.5,-2.07 0.33,-2.9 0.58,-0.58 1.24,-1.11 1.93,-1.54 1.01,-0.63 2.1,-0.49 2.94,0.36 0.55,0.56 1.06,1.18 1.47,1.85 0.71,1.14 0.44,2.39 -0.6,3.25 -0.22,0.18 -0.44,0.35 -0.66,0.53 0,-0.01 -0.01,-0.01 -0.01,-0.02 z m -0.71,-3.7 c -0.15,-0.19 -0.31,-0.39 -0.46,-0.58 -0.44,-0.54 -0.81,-0.59 -1.34,-0.17 -0.43,0.34 -0.86,0.67 -1.28,1.02 -0.43,0.36 -0.48,0.76 -0.15,1.19 0.35,0.46 0.72,0.92 1.08,1.36 0.36,0.43 0.76,0.48 1.19,0.15 0.46,-0.35 0.92,-0.72 1.36,-1.08 0.45,-0.37 0.48,-0.76 0.12,-1.24 -0.17,-0.21 -0.35,-0.43 -0.52,-0.65 z"
         id="path4" />
      <path
         d="m 313.51,644.79 c -0.3,0.24 -0.58,0.52 -0.91,0.71 -1.02,0.6 -2.11,0.52 -2.95,-0.31 -0.58,-0.58 -1.11,-1.23 -1.54,-1.93 -0.62,-0.99 -0.5,-2.07 0.33,-2.9 0.58,-0.58 1.24,-1.11 1.93,-1.54 1.01,-0.63 2.1,-0.49 2.94,0.36 0.55,0.56 1.06,1.18 1.47,1.85 0.71,1.14 0.44,2.39 -0.6,3.25 -0.22,0.18 -0.44,0.35 -0.66,0.53 0,0 -0.01,-0.01 -0.01,-0.02 z m -0.72,-3.7 c -0.15,-0.19 -0.31,-0.39 -0.46,-0.58 -0.44,-0.54 -0.81,-0.59 -1.34,-0.17 -0.43,0.34 -0.86,0.67 -1.28,1.02 -0.43,0.36 -0.48,0.76 -0.15,1.19 0.35,0.46 0.72,0.92 1.08,1.36 0.36,0.43 0.76,0.48 1.19,0.15 0.46,-0.35 0.92,-0.72 1.36,-1.08 0.45,-0.37 0.48,-0.76 0.12,-1.24 -0.16,-0.21 -0.34,-0.43 -0.52,-0.65 z"
         id="path5" />
      <path
         d="m 232.34,621.09 c -0.3,0.24 -0.58,0.52 -0.91,0.71 -1.02,0.6 -2.11,0.52 -2.95,-0.31 -0.58,-0.58 -1.11,-1.23 -1.54,-1.93 -0.62,-0.99 -0.5,-2.07 0.33,-2.9 0.58,-0.58 1.24,-1.11 1.93,-1.54 1.01,-0.63 2.1,-0.49 2.94,0.36 0.55,0.56 1.06,1.18 1.47,1.85 0.71,1.14 0.44,2.39 -0.6,3.25 -0.22,0.18 -0.44,0.35 -0.66,0.53 0,-0.01 0,-0.01 -0.01,-0.02 z m -0.71,-3.7 c -0.15,-0.19 -0.31,-0.39 -0.46,-0.58 -0.44,-0.54 -0.81,-0.59 -1.34,-0.17 -0.43,0.34 -0.86,0.67 -1.28,1.02 -0.43,0.36 -0.48,0.76 -0.15,1.19 0.35,0.46 0.72,0.92 1.08,1.36 0.36,0.43 0.76,0.48 1.19,0.15 0.46,-0.35 0.92,-0.72 1.36,-1.08 0.45,-0.37 0.48,-0.76 0.12,-1.24 -0.17,-0.21 -0.35,-0.43 -0.52,-0.65 z"
         id="path6" />
      <path
         d="m 292.91,586.24 c -0.3,0.24 -0.58,0.52 -0.91,0.71 -1.02,0.6 -2.11,0.52 -2.95,-0.31 -0.58,-0.58 -1.11,-1.23 -1.54,-1.93 -0.62,-0.99 -0.5,-2.07 0.33,-2.9 0.58,-0.58 1.24,-1.11 1.93,-1.54 1.01,-0.63 2.1,-0.49 2.94,0.36 0.55,0.56 1.06,1.18 1.47,1.85 0.71,1.14 0.44,2.39 -0.6,3.25 -0.22,0.18 -0.44,0.35 -0.66,0.53 0,-0.01 -0.01,-0.01 -0.01,-0.02 z m -0.72,-3.7 c -0.15,-0.19 -0.31,-0.39 -0.46,-0.58 -0.44,-0.54 -0.81,-0.59 -1.34,-0.17 -0.43,0.34 -0.86,0.67 -1.28,1.02 -0.43,0.36 -0.48,0.76 -0.15,1.19 0.35,0.46 0.72,0.92 1.08,1.36 0.36,0.43 0.76,0.48 1.19,0.15 0.46,-0.35 0.92,-0.72 1.36,-1.08 0.45,-0.37 0.48,-0.76 0.12,-1.24 -0.16,-0.21 -0.34,-0.43 -0.52,-0.65 z"
         id="path7" />
      <path
         d="m 347.46,619.88 c -1.61,1.28 -3.1,2.78 -4.86,3.81 -5.46,3.21 -11.24,2.78 -15.75,-1.66 -3.11,-3.07 -5.9,-6.59 -8.21,-10.3 -3.29,-5.29 -2.65,-11.04 1.74,-15.47 3.07,-3.1 6.59,-5.91 10.3,-8.2 5.39,-3.34 11.22,-2.59 15.69,1.91 2.95,2.97 5.65,6.32 7.87,9.87 3.77,6.06 2.35,12.77 -3.19,17.32 -1.16,0.95 -2.34,1.87 -3.52,2.81 -0.02,-0.03 -0.04,-0.06 -0.07,-0.09 z m -3.81,-19.75 c -0.82,-1.03 -1.63,-2.06 -2.46,-3.09 -2.32,-2.86 -4.32,-3.12 -7.17,-0.89 -2.29,1.79 -4.58,3.59 -6.83,5.44 -2.3,1.89 -2.58,4.04 -0.8,6.36 1.88,2.46 3.82,4.88 5.79,7.28 1.89,2.3 4.04,2.58 6.36,0.81 2.46,-1.88 4.88,-3.82 7.28,-5.79 2.38,-1.96 2.56,-4.08 0.64,-6.59 -0.91,-1.19 -1.87,-2.35 -2.81,-3.53 z"
         id="path8" />
      <path
         d="m 233.42,776.83 c -11.66,-4.54 -11.65,-14.47 -10.89,-24.63 -8.61,-2.55 -11.47,-8.59 -12.36,-16.79 -3.62,-33.6 -7.65,-67.15 -11.5,-100.72 -3.57,-31.16 -7.07,-62.33 -10.62,-93.5 -1.21,-10.61 -2.46,-21.21 -3.74,-32.19 -1.46,-0.08 -2.82,-0.18 -4.19,-0.24 -8,-0.34 -13.88,-6.18 -14.15,-14.23 -0.14,-3.99 -0.07,-7.99 -0.03,-11.98 0.09,-8.89 5.1,-14.62 13.89,-15.32 2.88,-0.23 3.7,-1.18 4.16,-3.95 7.87,-47.36 45.63,-86.43 92.46,-95.86 1.39,-0.28 2.77,-0.63 4.68,-1.07 0,-4.63 0.28,-9.3 -0.07,-13.93 -0.5,-6.61 1.83,-11.34 7.92,-14.09 h 23.93 c 5.87,2.68 8.36,7.18 7.91,13.66 -0.32,4.67 -0.06,9.39 -0.06,13.87 7.63,2.3 15.17,3.95 22.22,6.8 41.35,16.74 66.32,47.21 74.97,91.04 0.47,2.37 1.11,3.27 3.67,3.49 9.36,0.8 14.26,6.36 14.33,15.78 0.02,3.28 0.02,6.56 0,9.85 -0.06,10 -5.58,15.68 -15.47,15.95 -0.84,0.02 -1.68,0.12 -2.89,0.2 -0.98,8.36 -1.97,16.68 -2.93,25 -3.62,31.59 -7.25,63.17 -10.85,94.76 -3.54,31.02 -7.06,62.05 -10.58,93.07 -0.63,5.53 -1.2,11.06 -1.87,16.58 -0.86,7.13 -4.84,11.69 -12,13.82 0.77,10.16 0.75,20.07 -10.89,24.62 -45.01,0.01 -90.03,0.01 -135.05,0.01 z m 55.34,-105.64 c -4.26,-4 -8.29,-8.24 -12.45,-12.35 -0.85,-0.84 -1.82,-1.56 -2.76,-2.36 -10.59,14.77 -8.64,35.34 4.24,48.17 12.88,12.83 33.43,14.69 48.48,3.74 -5.25,-5.1 -33.05,-32.67 -37.93,-37.64 m 31.76,13.84 c 10.94,10.83 21.88,21.67 32.6,32.72 5.21,5.37 4.58,12.82 -1,17.83 -1.33,1.19 -2.75,2.29 -5.06,4.19 10.56,0 20.02,0.09 29.47,-0.14 0.89,-0.02 2.35,-1.93 2.49,-3.09 2.7,-22.51 5.23,-45.04 7.81,-67.57 3.31,-28.9 6.63,-57.8 9.93,-86.7 1.14,-10.01 2.23,-20.02 3.37,-30.23 -66.06,0 -131.63,0 -197.5,0 0.79,7.39 1.51,14.47 2.32,21.52 6.2,54.12 12.45,108.23 18.55,162.36 0.37,3.26 1.73,3.95 4.63,3.92 10.25,-0.12 20.51,-0.04 30.76,-0.06 0.89,0 1.78,-0.23 3.17,-0.42 -2.53,-2.12 -4.63,-3.79 -6.64,-5.57 -29.14,-25.7 -33.17,-70.96 -9.04,-101.32 6.07,-7.64 13.54,-8.17 20.42,-1.32 10.01,9.95 19.95,19.97 29.92,29.96 0.5,0.5 24.44,24.38 24.9,24.93 m 4.92,-189.7 c 16.38,-0.07 70.49,0.02 86.87,0.02 10.15,0 10.15,0 10.14,-10.01 0,-5.97 0,-5.97 -6.13,-5.97 -75.93,0 -151.86,0 -227.79,0 -10.48,0 -10.25,0.01 -10.56,10.63 -0.13,4.39 1.17,5.47 5.49,5.46 48.01,-0.16 96.02,-0.1 144.03,-0.1 1.28,0 2.57,-0.06 3.85,0.03 m 0.12,12.77 c -1.27,0.1 -2.56,0.03 -3.85,0.03 -41.88,0 -83.77,0 -125.65,0 -1.67,0 -3.34,0 -5.4,0 0.98,8.59 2.19,16.63 2.7,24.71 0.26,4.18 1.78,5.07 5.7,5.06 63.54,-0.12 127.07,-0.08 190.61,-0.08 0.85,0 1.86,0.28 2.53,-0.07 1.06,-0.56 2.6,-1.45 2.72,-2.36 1.16,-8.89 2.07,-17.81 3.12,-27.26 -12.66,0 -24.61,0 -36.56,0 -1.42,0 -40.58,-0.01 -42,-0.07 m -32.12,-73.03 c 0.08,3.85 0.02,7.7 0.02,11.56 v 19.59 h 13.68 c 0,-29.72 0,-59.16 0,-88.74 -4.64,0 -8.96,0 -13.68,0 v 4.52 c 0,6.42 -0.03,51.43 -0.01,57.85 m -12.79,0.85 c -0.12,-7.52 -0.02,-53.63 -0.02,-61.17 -37.57,2.15 -86.52,52.78 -84.13,86.59 h 84.12 c 0,-10.63 -0.03,-20.88 0.01,-31.13 m 39.9,-55.5 v 86.67 h 84.15 c -5.98,-45.34 -44.93,-80.79 -84.15,-86.67 z m 21.78,345.54 c -1.08,-1.13 -2.25,-2.16 -3.18,-3.37 -2.6,-3.37 -4.73,-3.91 -8.98,-1.36 -18.14,10.84 -36.82,10.68 -54.32,-1.07 -17.5,-11.76 -24.55,-28.92 -21.74,-49.98 1.14,-8.5 4.81,-15.95 9.25,-22.35 -2.6,-2.74 -4.91,-5.19 -7.21,-7.62 -16.61,18.47 -20.47,54.15 2.26,79.31 21.74,24.05 59.26,27.07 83.92,6.44 z m -107.58,26.86 v 5.69 c 0.01,5.81 0.01,5.82 5.88,5.82 h 115.8 c 10.87,0 10.87,0 9.52,-10.92 -0.01,-0.12 -0.16,-0.22 -0.44,-0.59 -43.3,0 -86.79,0 -130.76,0 z m 59.05,-401.16 v 13.34 h 13.32 c 0,-4.61 0,-8.93 0,-13.34 -4.58,0 -8.81,0 -13.32,0 z"
         id="path9" />
      <path
         d="m 283.54,690.3 c -3.53,-0.11 -6.4,-3.24 -6.19,-6.75 0.21,-3.56 4.14,-6.84 8.04,-6.7 3.54,0.13 6.35,3.21 6.15,6.78 -0.19,3.64 -3.98,6.8 -8,6.67 z"
         id="path10" />
      <path
         d="m 305.3,697.05 c 0.06,4.28 -2.99,7.81 -6.8,7.87 -3.66,0.06 -6.5,-2.81 -6.44,-6.5 0.07,-4.19 3.35,-7.78 7.05,-7.7 3.49,0.08 6.15,2.8 6.19,6.33 z"
         id="path11" />
    </g>
  </g>
</svg>
