<?xml version="1.0" encoding="UTF-8" standalone="no"?>
<svg
   enable-background="new 0 0 595.28 841.89"
   viewBox="0 0 539.28 539.99999"
   version="1.1"
   id="svg12"
   sodipodi:docname="500.svg"
   width="539.28003"
   height="540"
   inkscape:version="1.3.2 (091e20e, 2023-11-25, custom)"
   xmlns:inkscape="http://www.inkscape.org/namespaces/inkscape"
   xmlns:sodipodi="http://sodipodi.sourceforge.net/DTD/sodipodi-0.dtd"
   xmlns="http://www.w3.org/2000/svg"
   xmlns:svg="http://www.w3.org/2000/svg">
  <defs
     id="defs12" />
  <sodipodi:namedview
     id="namedview12"
     pagecolor="#ffffff"
     bordercolor="#000000"
     borderopacity="0.25"
     inkscape:showpageshadow="2"
     inkscape:pageopacity="0.0"
     inkscape:pagecheckerboard="0"
     inkscape:deskcolor="#d1d1d1"
     inkscape:zoom="1.3932936"
     inkscape:cx="297.49651"
     inkscape:cy="420.94501"
     inkscape:window-width="2560"
     inkscape:window-height="1369"
     inkscape:window-x="4072"
     inkscape:window-y="1632"
     inkscape:window-maximized="1"
     inkscape:current-layer="svg12" />
  <g
     stroke-miterlimit="10"
     id="g12"
     transform="translate(-30.862123,-221.05893)">
    <path
       d="M 510.5,755.4 H 91.83 c -30.19,0 -54.67,-24.48 -54.67,-54.67 V 282.06 c 0,-30.19 24.48,-54.67 54.67,-54.67 H 510.5 c 30.19,0 54.67,24.48 54.67,54.67 v 418.67 c 0,30.19 -24.47,54.67 -54.67,54.67 z"
       fill="#ffffff"
       opacity="0.5"
       stroke="#3c932c"
       stroke-width="7"
       id="path1" />
    <g
       fill="#3c932c"
       stroke="#ffffff"
       stroke-width="3"
       id="g11">
      <path
         d="m 261.67,543.62 c -1.76,1.4 -3.39,3.04 -5.32,4.17 -5.97,3.52 -12.3,3.05 -17.23,-1.81 -3.4,-3.36 -6.46,-7.21 -8.98,-11.27 -3.6,-5.79 -2.9,-12.08 1.91,-16.93 3.36,-3.39 7.21,-6.47 11.27,-8.98 5.9,-3.66 12.28,-2.84 17.17,2.09 3.23,3.26 6.18,6.91 8.61,10.8 4.13,6.63 2.57,13.97 -3.49,18.96 -1.27,1.04 -2.56,2.05 -3.85,3.07 -0.04,-0.04 -0.06,-0.07 -0.09,-0.1 z M 257.5,522 c -0.9,-1.12 -1.78,-2.26 -2.69,-3.38 -2.54,-3.13 -4.73,-3.42 -7.84,-0.98 -2.51,1.96 -5.02,3.93 -7.47,5.96 -2.51,2.07 -2.82,4.42 -0.88,6.96 2.06,2.69 4.17,5.34 6.33,7.96 2.07,2.51 4.42,2.82 6.96,0.88 2.69,-2.06 5.34,-4.17 7.96,-6.33 2.6,-2.14 2.8,-4.46 0.7,-7.21 -0.99,-1.3 -2.04,-2.57 -3.07,-3.86 z"
         id="path2" />
      <path
         d="m 378.3,640.25 c -1.76,1.4 -3.39,3.04 -5.32,4.17 -5.97,3.52 -12.3,3.05 -17.23,-1.81 -3.4,-3.36 -6.46,-7.21 -8.98,-11.27 -3.6,-5.79 -2.9,-12.08 1.91,-16.93 3.36,-3.39 7.21,-6.47 11.27,-8.98 5.9,-3.66 12.28,-2.84 17.17,2.09 3.23,3.26 6.18,6.91 8.61,10.8 4.13,6.63 2.57,13.97 -3.49,18.96 -1.27,1.04 -2.56,2.05 -3.85,3.07 -0.04,-0.03 -0.07,-0.07 -0.09,-0.1 z m -4.17,-21.62 c -0.9,-1.12 -1.78,-2.26 -2.69,-3.38 -2.54,-3.13 -4.73,-3.42 -7.84,-0.98 -2.51,1.96 -5.02,3.93 -7.47,5.96 -2.51,2.07 -2.82,4.42 -0.88,6.96 2.06,2.69 4.17,5.34 6.33,7.96 2.07,2.51 4.42,2.82 6.96,0.88 2.69,-2.06 5.34,-4.17 7.96,-6.33 2.6,-2.14 2.8,-4.46 0.7,-7.21 -1,-1.3 -2.05,-2.57 -3.07,-3.86 z"
         id="path3" />
      <path
         d="m 387.23,531.84 c -0.33,0.26 -0.64,0.57 -1,0.78 -1.12,0.66 -2.31,0.57 -3.23,-0.34 -0.64,-0.63 -1.21,-1.35 -1.68,-2.11 -0.68,-1.09 -0.54,-2.26 0.36,-3.17 0.63,-0.64 1.35,-1.21 2.11,-1.68 1.11,-0.69 2.3,-0.53 3.22,0.39 0.61,0.61 1.16,1.3 1.61,2.03 0.77,1.24 0.48,2.62 -0.65,3.55 -0.24,0.2 -0.48,0.38 -0.72,0.58 -0.01,-0.01 -0.02,-0.02 -0.02,-0.03 z m -0.79,-4.05 c -0.17,-0.21 -0.33,-0.42 -0.5,-0.63 -0.48,-0.59 -0.89,-0.64 -1.47,-0.18 -0.47,0.37 -0.94,0.74 -1.4,1.12 -0.47,0.39 -0.53,0.83 -0.16,1.3 0.39,0.5 0.78,1 1.19,1.49 0.39,0.47 0.83,0.53 1.31,0.17 0.5,-0.39 1,-0.78 1.49,-1.19 0.49,-0.4 0.52,-0.84 0.13,-1.35 -0.2,-0.25 -0.39,-0.49 -0.59,-0.73 z"
         id="path4" />
      <path
         d="m 318.19,599.01 c -0.33,0.26 -0.64,0.57 -1,0.78 -1.12,0.66 -2.31,0.57 -3.23,-0.34 -0.64,-0.63 -1.21,-1.35 -1.68,-2.11 -0.68,-1.09 -0.54,-2.26 0.36,-3.17 0.63,-0.64 1.35,-1.21 2.11,-1.68 1.11,-0.69 2.3,-0.53 3.22,0.39 0.61,0.61 1.16,1.3 1.61,2.03 0.77,1.24 0.48,2.62 -0.65,3.55 -0.24,0.2 -0.48,0.38 -0.72,0.58 -0.01,-0.01 -0.02,-0.02 -0.02,-0.03 z m -0.78,-4.05 c -0.17,-0.21 -0.33,-0.42 -0.5,-0.63 -0.48,-0.59 -0.89,-0.64 -1.47,-0.18 -0.47,0.37 -0.94,0.74 -1.4,1.12 -0.47,0.39 -0.53,0.83 -0.16,1.3 0.39,0.5 0.78,1 1.19,1.49 0.39,0.47 0.83,0.53 1.31,0.17 0.5,-0.39 1,-0.78 1.49,-1.19 0.49,-0.4 0.52,-0.84 0.13,-1.35 -0.2,-0.25 -0.4,-0.49 -0.59,-0.73 z"
         id="path5" />
      <path
         d="m 229.37,573.08 c -0.33,0.26 -0.64,0.57 -1,0.78 -1.12,0.66 -2.31,0.57 -3.23,-0.34 -0.64,-0.63 -1.21,-1.35 -1.68,-2.11 -0.68,-1.09 -0.54,-2.26 0.36,-3.17 0.63,-0.64 1.35,-1.21 2.11,-1.68 1.11,-0.69 2.3,-0.53 3.22,0.39 0.61,0.61 1.16,1.3 1.61,2.02 0.77,1.24 0.48,2.62 -0.65,3.55 -0.24,0.2 -0.48,0.38 -0.72,0.58 -0.01,-0.01 -0.01,-0.02 -0.02,-0.02 z m -0.78,-4.06 c -0.17,-0.21 -0.33,-0.42 -0.5,-0.63 -0.48,-0.59 -0.89,-0.64 -1.47,-0.18 -0.47,0.37 -0.94,0.74 -1.4,1.12 -0.47,0.39 -0.53,0.83 -0.16,1.3 0.39,0.5 0.78,1 1.19,1.49 0.39,0.47 0.83,0.53 1.31,0.17 0.5,-0.39 1,-0.78 1.49,-1.19 0.49,-0.4 0.52,-0.84 0.13,-1.35 -0.2,-0.25 -0.4,-0.48 -0.59,-0.73 z"
         id="path6" />
      <path
         d="m 295.64,534.94 c -0.33,0.26 -0.64,0.57 -1,0.78 -1.12,0.66 -2.31,0.57 -3.23,-0.34 -0.64,-0.63 -1.21,-1.35 -1.68,-2.11 -0.68,-1.09 -0.54,-2.26 0.36,-3.17 0.63,-0.64 1.35,-1.21 2.11,-1.68 1.11,-0.69 2.3,-0.53 3.22,0.39 0.61,0.61 1.16,1.3 1.61,2.03 0.77,1.24 0.48,2.62 -0.65,3.55 -0.24,0.2 -0.48,0.38 -0.72,0.58 -0.01,-0.02 -0.01,-0.02 -0.02,-0.03 z m -0.78,-4.05 c -0.17,-0.21 -0.33,-0.42 -0.5,-0.63 -0.48,-0.59 -0.89,-0.64 -1.47,-0.18 -0.47,0.37 -0.94,0.74 -1.4,1.12 -0.47,0.39 -0.53,0.83 -0.16,1.3 0.39,0.5 0.78,1 1.19,1.49 0.39,0.47 0.83,0.53 1.31,0.17 0.5,-0.39 1,-0.78 1.49,-1.19 0.49,-0.4 0.52,-0.84 0.13,-1.35 -0.2,-0.25 -0.4,-0.49 -0.59,-0.73 z"
         id="path7" />
      <path
         d="m 355.34,571.75 c -1.76,1.4 -3.39,3.04 -5.32,4.17 -5.97,3.52 -12.3,3.05 -17.23,-1.81 -3.4,-3.36 -6.46,-7.21 -8.98,-11.27 -3.6,-5.79 -2.9,-12.08 1.91,-16.93 3.36,-3.39 7.21,-6.47 11.27,-8.98 5.9,-3.66 12.28,-2.84 17.17,2.09 3.23,3.26 6.18,6.91 8.61,10.8 4.13,6.63 2.57,13.97 -3.49,18.96 -1.27,1.04 -2.56,2.05 -3.85,3.07 -0.03,-0.03 -0.06,-0.06 -0.09,-0.1 z m -4.17,-21.61 c -0.9,-1.12 -1.78,-2.26 -2.69,-3.38 -2.54,-3.13 -4.73,-3.42 -7.84,-0.98 -2.51,1.96 -5.02,3.93 -7.47,5.96 -2.51,2.07 -2.82,4.42 -0.88,6.96 2.06,2.69 4.17,5.34 6.33,7.96 2.07,2.51 4.42,2.82 6.96,0.88 2.69,-2.06 5.34,-4.17 7.96,-6.33 2.6,-2.14 2.8,-4.46 0.7,-7.21 -0.99,-1.3 -2.04,-2.57 -3.07,-3.86 z"
         id="path8" />
      <path
         d="m 230.55,743.5 c -12.76,-4.97 -12.75,-15.83 -11.92,-26.95 -9.42,-2.79 -12.55,-9.4 -13.52,-18.38 -3.96,-36.76 -8.38,-73.47 -12.58,-110.21 -3.9,-34.1 -7.74,-68.21 -11.62,-102.31 -1.32,-11.61 -2.7,-23.21 -4.1,-35.23 -1.6,-0.09 -3.09,-0.2 -4.59,-0.26 -8.76,-0.37 -15.18,-6.76 -15.49,-15.57 -0.15,-4.37 -0.07,-8.74 -0.03,-13.11 0.1,-9.73 5.59,-16 15.2,-16.76 3.15,-0.25 4.05,-1.29 4.55,-4.32 8.61,-51.82 49.94,-94.58 101.18,-104.9 1.52,-0.31 3.03,-0.69 5.12,-1.17 0,-5.06 0.31,-10.18 -0.07,-15.24 -0.55,-7.23 2,-12.41 8.66,-15.42 h 26.19 c 6.42,2.93 9.14,7.86 8.66,14.95 -0.35,5.11 -0.07,10.27 -0.07,15.18 8.35,2.52 16.6,4.32 24.31,7.44 45.24,18.32 72.57,51.67 82.04,99.62 0.51,2.59 1.22,3.58 4.01,3.82 10.24,0.87 15.61,6.96 15.68,17.27 0.03,3.59 0.02,7.18 0,10.77 -0.07,10.94 -6.11,17.16 -16.93,17.46 -0.92,0.03 -1.84,0.13 -3.16,0.22 -1.07,9.15 -2.16,18.25 -3.2,27.36 -3.97,34.56 -7.93,69.13 -11.87,103.7 -3.87,33.95 -7.72,67.9 -11.58,101.85 -0.69,6.05 -1.31,12.1 -2.04,18.14 -0.94,7.8 -5.3,12.79 -13.13,15.13 0.84,11.11 0.82,21.96 -11.92,26.94 -49.26,-0.02 -98.52,-0.02 -147.78,-0.02 z M 291.1,627.9 c -4.66,-4.37 -9.07,-9.01 -13.62,-13.51 -0.93,-0.92 -1.99,-1.71 -3.02,-2.58 -11.58,16.16 -9.45,38.67 4.64,52.71 14.09,14.04 36.58,16.07 53.05,4.09 -5.74,-5.58 -36.16,-35.75 -41.5,-41.19 m 34.75,15.14 c 11.97,11.85 23.94,23.71 35.67,35.8 5.7,5.87 5.01,14.03 -1.1,19.51 -1.46,1.31 -3.01,2.5 -5.54,4.59 11.56,0 21.91,0.09 32.25,-0.15 0.97,-0.02 2.58,-2.11 2.73,-3.38 2.95,-24.63 5.73,-49.29 8.55,-73.94 3.62,-31.62 7.26,-63.25 10.87,-94.87 1.25,-10.95 2.44,-21.9 3.68,-33.07 -72.29,0 -144.03,0 -216.12,0 0.87,8.09 1.65,15.83 2.54,23.55 6.78,59.22 13.62,118.43 20.3,177.66 0.4,3.57 1.89,4.33 5.07,4.29 11.22,-0.13 22.44,-0.04 33.66,-0.07 0.97,0 1.95,-0.25 3.47,-0.46 -2.77,-2.32 -5.06,-4.15 -7.26,-6.09 -31.88,-28.13 -36.29,-77.65 -9.89,-110.87 6.64,-8.36 14.81,-8.94 22.35,-1.44 10.95,10.89 21.83,21.85 32.74,32.79 0.55,0.55 26.75,26.68 27.24,27.28 m 5.38,-207.61 c 17.93,-0.08 77.14,0.03 95.06,0.03 11.11,0 11.11,0 11.1,-10.96 0,-6.53 0,-6.54 -6.71,-6.54 -83.09,0 -166.18,0 -249.26,0 -11.46,0 -11.22,0.01 -11.56,11.63 -0.14,4.8 1.28,5.99 6.01,5.97 52.53,-0.17 105.07,-0.11 157.6,-0.11 1.4,0 2.81,-0.07 4.21,0.04 m 0.14,13.99 c -1.39,0.11 -2.8,0.04 -4.21,0.04 -45.83,0 -91.66,0 -137.49,0 -1.83,0 -3.65,0 -5.91,0 1.07,9.4 2.4,18.2 2.95,27.04 0.29,4.58 1.95,5.55 6.23,5.54 69.53,-0.13 139.05,-0.09 208.58,-0.09 0.94,0 2.03,0.3 2.77,-0.08 1.16,-0.61 2.85,-1.59 2.98,-2.58 1.27,-9.73 2.27,-19.49 3.41,-29.83 -13.86,0 -26.93,0 -40.01,0 -1.56,0 -44.4,-0.01 -45.96,-0.08 m -35.15,-79.93 c 0.08,4.21 0.02,8.43 0.02,12.64 v 21.44 h 14.97 c 0,-32.52 0,-64.73 0,-97.11 -5.07,0 -9.81,0 -14.97,0 v 4.95 c 0,7.03 -0.03,56.28 -0.01,63.3 m -13.99,0.94 c -0.13,-8.23 -0.02,-58.68 -0.02,-66.93 -41.11,2.36 -94.67,57.75 -92.06,94.75 h 92.05 c 0,-11.63 -0.04,-22.84 0.02,-34.06 m 43.65,-60.74 v 94.84 h 92.08 c -6.55,-49.6 -49.17,-88.4 -92.08,-94.84 z m 23.83,378.12 c -1.18,-1.24 -2.46,-2.36 -3.48,-3.69 -2.85,-3.69 -5.17,-4.27 -9.83,-1.49 -19.85,11.86 -40.29,11.69 -59.44,-1.17 -19.15,-12.87 -26.87,-31.65 -23.78,-54.69 1.24,-9.3 5.26,-17.46 10.13,-24.45 -2.84,-3 -5.37,-5.68 -7.89,-8.34 -18.17,20.21 -22.4,59.26 2.47,86.78 23.78,26.32 64.84,29.62 91.82,7.05 z m -117.72,29.39 v 6.23 c 0.01,6.36 0.01,6.37 6.44,6.37 h 126.71 c 11.89,0 11.89,0 10.42,-11.95 -0.02,-0.13 -0.17,-0.24 -0.48,-0.65 -47.38,0 -94.98,0 -143.09,0 z m 64.61,-438.97 v 14.6 h 14.57 c 0,-5.04 0,-9.78 0,-14.6 -4.99,0 -9.63,0 -14.57,0 z"
         id="path9" />
      <path
         d="m 285.4,648.82 c -3.87,-0.12 -7,-3.54 -6.77,-7.39 0.24,-3.9 4.54,-7.48 8.79,-7.33 3.88,0.14 6.94,3.51 6.73,7.41 -0.21,3.98 -4.36,7.44 -8.75,7.31 z"
         id="path10" />
      <path
         d="m 309.21,656.2 c 0.06,4.69 -3.27,8.54 -7.44,8.61 -4,0.07 -7.11,-3.07 -7.05,-7.11 0.08,-4.59 3.66,-8.51 7.71,-8.43 3.82,0.08 6.73,3.06 6.78,6.93 z"
         id="path11" />
    </g>
  </g>
</svg>
