<?xml version="1.0" encoding="UTF-8" standalone="no"?>
<svg
   enable-background="new 0 0 595.28 841.89"
   viewBox="0 0 539.28 538.89"
   version="1.1"
   id="svg12"
   sodipodi:docname="300.svg"
   width="539.28003"
   height="538.89001"
   inkscape:version="1.3.2 (091e20e, 2023-11-25, custom)"
   xmlns:inkscape="http://www.inkscape.org/namespaces/inkscape"
   xmlns:sodipodi="http://sodipodi.sourceforge.net/DTD/sodipodi-0.dtd"
   xmlns="http://www.w3.org/2000/svg"
   xmlns:svg="http://www.w3.org/2000/svg">
  <defs
     id="defs12" />
  <sodipodi:namedview
     id="namedview12"
     pagecolor="#ffffff"
     bordercolor="#000000"
     borderopacity="0.25"
     inkscape:showpageshadow="2"
     inkscape:pageopacity="0.0"
     inkscape:pagecheckerboard="0"
     inkscape:deskcolor="#d1d1d1"
     inkscape:zoom="1.3932936"
     inkscape:cx="297.49651"
     inkscape:cy="420.94501"
     inkscape:window-width="2560"
     inkscape:window-height="1369"
     inkscape:window-x="4072"
     inkscape:window-y="1632"
     inkscape:window-maximized="1"
     inkscape:current-layer="svg12" />
  <g
     stroke-miterlimit="10"
     id="g12"
     transform="translate(-26.312735,-268.69475)">
    <path
       d="M 505.61,802.28 H 86.94 c -30.19,0 -54.67,-24.48 -54.67,-54.67 V 328.95 c 0,-30.19 24.48,-54.67 54.67,-54.67 h 418.67 c 30.19,0 54.67,24.48 54.67,54.67 v 418.67 c 0,30.19 -24.47,54.66 -54.67,54.66 z"
       fill="#ffffff"
       opacity="0.5"
       stroke="#3c932c"
       stroke-width="7"
       id="path1" />
    <g
       fill="#3c932c"
       stroke="#ffffff"
       stroke-width="3"
       id="g11">
      <path
         d="m 263.2,628.02 c -1.42,1.13 -2.74,2.46 -4.29,3.37 -4.82,2.84 -9.94,2.46 -13.92,-1.47 -2.75,-2.71 -5.22,-5.82 -7.25,-9.1 -2.91,-4.68 -2.34,-9.76 1.54,-13.67 2.72,-2.74 5.82,-5.22 9.11,-7.25 4.76,-2.95 9.92,-2.29 13.87,1.69 2.61,2.63 4.99,5.58 6.95,8.73 3.34,5.36 2.07,11.29 -2.82,15.31 -1.02,0.84 -2.07,1.66 -3.11,2.48 -0.04,-0.04 -0.06,-0.07 -0.08,-0.09 z m -3.37,-17.47 c -0.72,-0.91 -1.44,-1.82 -2.17,-2.73 -2.05,-2.53 -3.82,-2.76 -6.34,-0.79 -2.02,1.59 -4.05,3.18 -6.04,4.81 -2.03,1.67 -2.28,3.57 -0.71,5.62 1.66,2.17 3.37,4.32 5.11,6.43 1.67,2.03 3.57,2.28 5.62,0.71 2.17,-1.66 4.32,-3.37 6.43,-5.11 2.1,-1.73 2.26,-3.6 0.57,-5.83 -0.79,-1.04 -1.64,-2.06 -2.47,-3.11 z"
         id="path2" />
      <path
         d="m 357.4,706.07 c -1.42,1.13 -2.74,2.46 -4.29,3.37 -4.82,2.84 -9.94,2.46 -13.92,-1.47 -2.75,-2.71 -5.22,-5.82 -7.25,-9.1 -2.91,-4.68 -2.34,-9.76 1.54,-13.67 2.72,-2.74 5.82,-5.22 9.11,-7.25 4.76,-2.95 9.92,-2.29 13.87,1.69 2.61,2.63 4.99,5.58 6.95,8.73 3.34,5.36 2.07,11.29 -2.82,15.31 -1.02,0.84 -2.07,1.66 -3.11,2.48 -0.04,-0.04 -0.06,-0.06 -0.08,-0.09 z m -3.37,-17.46 c -0.72,-0.91 -1.44,-1.82 -2.17,-2.73 -2.05,-2.53 -3.82,-2.76 -6.34,-0.79 -2.02,1.59 -4.05,3.18 -6.04,4.81 -2.03,1.67 -2.28,3.57 -0.71,5.62 1.66,2.17 3.37,4.32 5.11,6.43 1.67,2.03 3.57,2.28 5.62,0.71 2.17,-1.66 4.32,-3.37 6.43,-5.11 2.1,-1.73 2.26,-3.6 0.57,-5.83 -0.79,-1.04 -1.64,-2.07 -2.47,-3.11 z"
         id="path3" />
      <path
         d="m 364.61,618.51 c -0.27,0.21 -0.51,0.46 -0.8,0.63 -0.9,0.53 -1.86,0.46 -2.61,-0.27 -0.51,-0.51 -0.98,-1.09 -1.36,-1.71 -0.55,-0.88 -0.44,-1.83 0.29,-2.56 0.51,-0.51 1.09,-0.98 1.71,-1.36 0.89,-0.55 1.86,-0.43 2.6,0.32 0.49,0.49 0.94,1.05 1.3,1.64 0.63,1 0.39,2.12 -0.53,2.87 -0.19,0.16 -0.39,0.31 -0.58,0.47 -0.01,-0.02 -0.01,-0.03 -0.02,-0.03 z m -0.63,-3.28 c -0.14,-0.17 -0.27,-0.34 -0.41,-0.51 -0.38,-0.47 -0.72,-0.52 -1.19,-0.15 -0.38,0.3 -0.76,0.6 -1.13,0.9 -0.38,0.31 -0.43,0.67 -0.13,1.05 0.31,0.41 0.63,0.81 0.96,1.21 0.31,0.38 0.67,0.43 1.05,0.13 0.41,-0.31 0.81,-0.63 1.21,-0.96 0.39,-0.32 0.42,-0.68 0.11,-1.09 -0.15,-0.19 -0.31,-0.38 -0.47,-0.58 z"
         id="path4" />
      <path
         d="m 308.85,672.76 c -0.27,0.21 -0.51,0.46 -0.8,0.63 -0.9,0.53 -1.86,0.46 -2.61,-0.27 -0.51,-0.51 -0.98,-1.09 -1.36,-1.71 -0.55,-0.88 -0.44,-1.83 0.29,-2.56 0.51,-0.51 1.09,-0.98 1.71,-1.36 0.89,-0.55 1.86,-0.43 2.6,0.32 0.49,0.49 0.94,1.05 1.3,1.64 0.63,1 0.39,2.12 -0.53,2.87 -0.19,0.16 -0.39,0.31 -0.58,0.47 -0.01,-0.02 -0.02,-0.02 -0.02,-0.03 z m -0.63,-3.27 c -0.14,-0.17 -0.27,-0.34 -0.41,-0.51 -0.38,-0.47 -0.72,-0.52 -1.19,-0.15 -0.38,0.3 -0.76,0.6 -1.13,0.9 -0.38,0.31 -0.43,0.67 -0.13,1.05 0.31,0.41 0.63,0.81 0.96,1.21 0.31,0.38 0.67,0.43 1.05,0.13 0.41,-0.31 0.81,-0.63 1.21,-0.96 0.39,-0.32 0.42,-0.68 0.11,-1.09 -0.16,-0.19 -0.32,-0.39 -0.47,-0.58 z"
         id="path5" />
      <path
         d="m 237.11,651.81 c -0.27,0.21 -0.51,0.46 -0.8,0.63 -0.9,0.53 -1.86,0.46 -2.61,-0.27 -0.51,-0.51 -0.98,-1.09 -1.36,-1.71 -0.55,-0.88 -0.44,-1.83 0.29,-2.56 0.51,-0.51 1.09,-0.98 1.71,-1.36 0.89,-0.55 1.86,-0.43 2.6,0.32 0.49,0.49 0.94,1.05 1.3,1.64 0.63,1 0.39,2.12 -0.53,2.87 -0.19,0.16 -0.39,0.31 -0.58,0.47 -0.01,-0.02 -0.02,-0.02 -0.02,-0.03 z m -0.63,-3.27 c -0.14,-0.17 -0.27,-0.34 -0.41,-0.51 -0.38,-0.47 -0.72,-0.52 -1.19,-0.15 -0.38,0.3 -0.76,0.6 -1.13,0.9 -0.38,0.31 -0.43,0.67 -0.13,1.05 0.31,0.41 0.63,0.81 0.96,1.21 0.31,0.38 0.67,0.43 1.05,0.13 0.41,-0.31 0.81,-0.63 1.21,-0.96 0.39,-0.32 0.42,-0.68 0.11,-1.09 -0.16,-0.19 -0.32,-0.39 -0.47,-0.58 z"
         id="path6" />
      <path
         d="m 290.64,621.01 c -0.27,0.21 -0.51,0.46 -0.8,0.63 -0.9,0.53 -1.86,0.46 -2.61,-0.27 -0.51,-0.51 -0.98,-1.09 -1.36,-1.71 -0.55,-0.88 -0.44,-1.83 0.29,-2.56 0.51,-0.51 1.09,-0.98 1.71,-1.36 0.89,-0.55 1.86,-0.43 2.6,0.32 0.49,0.49 0.94,1.05 1.3,1.64 0.63,1 0.39,2.12 -0.53,2.87 -0.19,0.16 -0.39,0.31 -0.58,0.47 -0.01,-0.02 -0.02,-0.03 -0.02,-0.03 z m -0.63,-3.27 c -0.14,-0.17 -0.27,-0.34 -0.41,-0.51 -0.38,-0.47 -0.72,-0.52 -1.19,-0.15 -0.38,0.3 -0.76,0.6 -1.13,0.9 -0.38,0.31 -0.43,0.67 -0.13,1.05 0.31,0.41 0.63,0.81 0.96,1.21 0.31,0.38 0.67,0.43 1.05,0.13 0.41,-0.31 0.81,-0.63 1.21,-0.96 0.39,-0.32 0.42,-0.68 0.11,-1.09 -0.16,-0.2 -0.32,-0.39 -0.47,-0.58 z"
         id="path7" />
      <path
         d="m 338.86,650.74 c -1.42,1.13 -2.74,2.46 -4.29,3.37 -4.82,2.84 -9.94,2.46 -13.92,-1.47 -2.75,-2.71 -5.22,-5.82 -7.25,-9.1 -2.91,-4.68 -2.34,-9.76 1.54,-13.67 2.72,-2.74 5.82,-5.22 9.11,-7.25 4.76,-2.95 9.92,-2.29 13.87,1.69 2.61,2.63 4.99,5.58 6.95,8.73 3.34,5.36 2.07,11.29 -2.82,15.31 -1.02,0.84 -2.07,1.66 -3.11,2.48 -0.04,-0.03 -0.06,-0.06 -0.08,-0.09 z m -3.37,-17.46 c -0.72,-0.91 -1.44,-1.82 -2.17,-2.73 -2.05,-2.53 -3.82,-2.76 -6.34,-0.79 -2.02,1.59 -4.05,3.18 -6.04,4.81 -2.03,1.67 -2.28,3.57 -0.71,5.62 1.66,2.17 3.37,4.32 5.11,6.43 1.67,2.03 3.57,2.28 5.62,0.71 2.17,-1.66 4.32,-3.37 6.43,-5.11 2.1,-1.73 2.26,-3.6 0.57,-5.83 -0.79,-1.04 -1.64,-2.07 -2.47,-3.11 z"
         id="path8" />
      <path
         d="m 238.06,789.47 c -10.31,-4.01 -10.3,-12.79 -9.63,-21.77 -7.61,-2.26 -10.14,-7.59 -10.92,-14.84 -3.2,-29.69 -6.77,-59.35 -10.16,-89.02 -3.15,-27.54 -6.25,-55.1 -9.39,-82.64 -1.07,-9.38 -2.18,-18.75 -3.31,-28.46 -1.29,-0.07 -2.5,-0.16 -3.7,-0.21 -7.07,-0.3 -12.26,-5.46 -12.51,-12.58 -0.12,-3.53 -0.06,-7.06 -0.02,-10.59 0.08,-7.86 4.51,-12.92 12.27,-13.54 2.55,-0.2 3.27,-1.04 3.68,-3.49 6.96,-41.86 40.33,-76.39 81.72,-84.73 1.23,-0.25 2.45,-0.56 4.14,-0.94 0,-4.09 0.25,-8.22 -0.06,-12.31 -0.44,-5.84 1.62,-10.02 7,-12.46 h 21.15 c 5.19,2.36 7.39,6.35 6.99,12.07 -0.28,4.13 -0.06,8.3 -0.06,12.26 6.74,2.03 13.41,3.49 19.64,6.01 36.55,14.79 58.62,41.73 66.27,80.46 0.41,2.09 0.98,2.89 3.24,3.08 8.27,0.71 12.61,5.62 12.67,13.95 0.02,2.9 0.02,5.8 0,8.7 -0.05,8.84 -4.94,13.86 -13.67,14.1 -0.74,0.02 -1.48,0.1 -2.55,0.18 -0.87,7.39 -1.74,14.74 -2.59,22.1 -3.2,27.92 -6.41,55.84 -9.59,83.76 -3.13,27.42 -6.24,54.84 -9.35,82.27 -0.55,4.88 -1.06,9.77 -1.65,14.65 -0.76,6.3 -4.28,10.33 -10.61,12.22 0.68,8.98 0.67,17.74 -9.63,21.76 -39.79,0.01 -79.58,0.01 -119.37,0.01 z m 48.91,-93.37 c -3.77,-3.53 -7.33,-7.28 -11,-10.91 -0.75,-0.74 -1.61,-1.38 -2.44,-2.08 -9.36,13.06 -7.64,31.23 3.75,42.58 11.38,11.34 29.55,12.98 42.85,3.31 -4.64,-4.51 -29.21,-28.87 -33.52,-33.27 m 28.07,12.21 c 9.67,9.57 19.34,19.15 28.82,28.92 4.6,4.74 4.04,11.33 -0.88,15.76 -1.18,1.06 -2.43,2.02 -4.48,3.7 9.33,0 17.7,0.08 26.05,-0.12 0.78,-0.02 2.08,-1.71 2.2,-2.73 2.38,-19.9 4.63,-39.81 6.9,-59.72 2.92,-25.54 5.86,-51.09 8.78,-76.63 1.01,-8.84 1.97,-17.69 2.97,-26.72 -58.39,0 -116.34,0 -174.57,0 0.7,6.54 1.33,12.79 2.05,19.03 5.48,47.83 11,95.66 16.4,143.51 0.32,2.88 1.52,3.49 4.09,3.46 9.06,-0.11 18.13,-0.03 27.19,-0.05 0.79,0 1.57,-0.2 2.8,-0.37 -2.24,-1.87 -4.09,-3.35 -5.87,-4.92 -25.75,-22.72 -29.32,-62.72 -7.99,-89.56 5.37,-6.75 11.96,-7.22 18.05,-1.17 8.85,8.8 17.63,17.65 26.44,26.48 0.44,0.45 21.61,21.55 22.01,22.03 m 4.35,-167.68 c 14.48,-0.06 62.31,0.02 76.79,0.02 8.97,0 8.97,0 8.97,-8.85 0,-5.28 0,-5.28 -5.42,-5.28 -67.11,0 -134.23,0 -201.34,0 -9.26,0 -9.06,0.01 -9.34,9.39 -0.11,3.88 1.03,4.84 4.85,4.83 42.43,-0.14 84.87,-0.09 127.3,-0.09 1.13,0 2.27,-0.06 3.4,0.03 m 0.12,11.29 c -1.13,0.09 -2.27,0.03 -3.4,0.03 -37.02,0 -74.04,0 -111.06,0 -1.48,0 -2.95,0 -4.78,0 0.87,7.59 1.94,14.7 2.38,21.84 0.23,3.7 1.57,4.48 5.03,4.47 56.16,-0.1 112.32,-0.07 168.48,-0.07 0.76,0 1.64,0.25 2.24,-0.07 0.94,-0.49 2.3,-1.28 2.4,-2.09 1.03,-7.86 1.83,-15.74 2.75,-24.09 -11.19,0 -21.76,0 -32.32,0 -1.26,0 -35.86,-0.01 -37.12,-0.06 m -28.37,-64.55 c 0.07,3.4 0.02,6.81 0.02,10.21 v 17.31 h 12.09 c 0,-26.27 0,-52.29 0,-78.44 -4.1,0 -7.92,0 -12.09,0 v 4 c 0,5.67 -0.02,45.46 -0.01,51.13 m -11.3,0.77 c -0.11,-6.64 -0.02,-47.4 -0.02,-54.06 -33.21,1.9 -76.47,46.65 -74.36,76.53 h 74.35 c 0,-9.39 -0.03,-18.45 0.01,-27.51 m 35.27,-49.07 v 76.61 h 74.38 c -5.29,-40.07 -39.72,-71.41 -74.38,-76.61 z m 19.25,305.42 c -0.95,-1 -1.99,-1.91 -2.81,-2.98 -2.3,-2.98 -4.18,-3.45 -7.94,-1.2 -16.03,9.58 -32.54,9.44 -48.01,-0.95 -15.47,-10.39 -21.7,-25.56 -19.21,-44.17 1,-7.51 4.25,-14.1 8.18,-19.75 -2.29,-2.43 -4.34,-4.59 -6.37,-6.74 -14.68,16.33 -18.1,47.86 2,70.1 19.2,21.26 52.36,23.92 74.16,5.69 z m -95.09,23.74 v 5.03 c 0,5.14 0,5.14 5.2,5.14 h 102.35 c 9.6,0 9.6,0 8.41,-9.65 -0.01,-0.1 -0.14,-0.19 -0.39,-0.52 -38.27,0 -76.71,0 -115.57,0 z m 52.19,-354.57 v 11.79 h 11.77 c 0,-4.07 0,-7.9 0,-11.79 -4.04,0 -7.78,0 -11.77,0 z"
         id="path9" />
      <path
         d="m 282.36,712.99 c -3.12,-0.1 -5.66,-2.86 -5.47,-5.97 0.19,-3.15 3.66,-6.05 7.1,-5.92 3.13,0.11 5.61,2.84 5.44,5.99 -0.17,3.21 -3.52,6.01 -7.07,5.9 z"
         id="path10" />
      <path
         d="m 301.6,718.95 c 0.05,3.79 -2.64,6.9 -6.01,6.96 -3.23,0.06 -5.75,-2.48 -5.69,-5.74 0.06,-3.71 2.96,-6.87 6.23,-6.81 3.07,0.06 5.43,2.47 5.47,5.59 z"
         id="path11" />
    </g>
  </g>
</svg>
